<?xml version="1.0" standalone="no"?>
<!DOCTYPE svg PUBLIC "-//W3C//DTD SVG 20010904//EN"
 "http://www.w3.org/TR/2001/REC-SVG-20010904/DTD/svg10.dtd">
<svg version="1.0" xmlns="http://www.w3.org/2000/svg"
 width="103.000000pt" height="103.000000pt" viewBox="0 0 103.000000 103.000000"
 preserveAspectRatio="xMidYMid meet">
<metadata>
Created by potrace 1.11, written by Peter Selinger 2001-2013
</metadata>
<g transform="translate(0.000000,103.000000) scale(0.100000,-0.100000)"
fill="#000000" stroke="none">
<path d="M370 881 c-132 -43 -217 -145 -227 -275 -5 -59 -7 -63 -41 -82 -99
-53 -129 -194 -60 -283 29 -38 80 -71 108 -71 24 0 38 18 126 165 96 159 100
165 132 165 18 0 31 -3 29 -7 -23 -43 -84 -139 -89 -141 -5 -2 -8 -7 -8 -12 0
-5 -22 -45 -50 -89 -27 -44 -50 -83 -50 -86 0 -4 12 -5 27 -3 24 3 42 26 129
168 93 152 103 165 132 168 18 2 32 1 32 -2 0 -3 -41 -72 -91 -153 -122 -199
-115 -183 -82 -183 25 0 37 15 121 153 51 83 97 159 102 167 6 8 37 59 70 114
l61 98 -25 42 c-56 96 -140 147 -251 152 -38 2 -81 0 -95 -5z"/>
<path d="M754 608 c-26 -39 -55 -88 -66 -107 -11 -20 -62 -103 -113 -186 l-94
-150 155 -3 c168 -3 208 4 269 44 176 116 148 377 -49 459 -19 8 -40 15 -46
15 -5 0 -31 -32 -56 -72z"/>
</g>
</svg>
